<?xml version="1.0" encoding="UTF-8"?>
<svg id="Layer_1" xmlns="http://www.w3.org/2000/svg" version="1.1" viewBox="0 0 152.4 129.6">
  <!-- Generator: Adobe Illustrator 29.8.3, SVG Export Plug-In . SVG Version: 2.1.1 Build 3)  -->
  <defs>
    <style>
      .st0 {
        fill: #3570b6;
      }

      .st1 {
        fill: #2867b2;
      }

      .st2 {
        fill: #fdfdfe;
      }

      .st3 {
        fill: #fdfefe;
      }
    </style>
  </defs>
  <path class="st1" d="M8.63,0h111.9c4.1,1.01,7.2,3.74,7.91,8.02v112.12c-.59,4.66-4.34,7.9-8.98,8.26H9.22c-4.78-.38-8.64-3.79-8.98-8.63V8.62C.6,4.13,3.93,1.03,8.15,0h.48ZM27.75,17.8c-14.33,1.34-12.41,23.03,1.84,21.96s12.7-23.32-1.84-21.96ZM109.51,109.24c-.35-11.94.47-24.15.01-36.06-.42-11.05-2.61-22.54-14.87-25.62-7.92-1.99-16.92-1.06-22.86,4.94-1.09,1.09-1.87,2.54-2.82,3.65-.21.25-.23.5-.68.4v-8.38h-17.97v61.09h18.93v-34.62c0-3.65,2.5-8.79,5.99-10.3,9.36-4.05,15.64,2.45,15.34,11.73v33.19s18.92,0,18.92,0ZM38.1,48.15h-18.93v61.09h18.93v-61.09Z"/>
  <path class="st3" d="M109.51,109.24h-18.93v-33.19c.31-9.27-5.98-15.77-15.33-11.73-3.49,1.51-5.99,6.65-5.99,10.3v34.62h-18.93v-61.09h17.97v8.38c.45.1.46-.15.68-.4.95-1.11,1.73-2.55,2.82-3.65,5.95-5.99,14.94-6.93,22.86-4.94,12.25,3.08,14.45,14.58,14.87,25.62.45,11.91-.36,24.12-.01,36.06Z"/>
  <rect class="st2" x="19.17" y="48.15" width="18.93" height="61.09"/>
  <path class="st2" d="M27.75,17.8c14.54-1.36,16.25,20.88,1.84,21.96s-16.17-20.62-1.84-21.96Z"/>
  <path class="st0" d="M141.8,111.7c12.36-1.69,13.78,16.99,1.85,17.66-11.14.63-12.65-16.18-1.85-17.66ZM141.55,112.89c-2.5.39-5.04,2.9-5.76,5.26-1.99,6.55,4.89,12.31,11.02,9.1,7.55-3.96,3.8-15.78-5.26-14.36Z"/>
  <path class="st2" d="M141.55,112.89c9.06-1.42,12.81,10.4,5.26,14.36-6.13,3.21-13.01-2.55-11.02-9.1.72-2.36,3.26-4.87,5.76-5.26ZM144.61,115.71c-1.4-.21-3.22.15-4.67,0v9.58h1.44v-4.07c3.08-.79,2.67,4.42,5.51,4.07.42-.39-2.25-3.51-2.4-4.19,3.25-.19,3.25-4.93.12-5.39Z"/>
  <path class="st0" d="M144.61,115.71c3.13.46,3.13,5.2-.12,5.39.14.68,2.81,3.8,2.4,4.19-2.84.35-2.43-4.86-5.51-4.07v4.07h-1.44v-9.58c1.45.15,3.27-.21,4.67,0ZM145.15,119.48c.27-.27.36-1.11.3-1.49-.24-1.53-2.97-1.02-4.08-1.09v3.12c.9,0,3.12.12,3.78-.54Z"/>
  <path class="st2" d="M145.15,119.48c-.65.66-2.87.53-3.78.54v-3.12c1.1.07,3.84-.44,4.08,1.09.06.38-.03,1.22-.3,1.49Z"/>
</svg>