<?xml version="1.0" encoding="UTF-8"?>
<svg id="Layer_1" xmlns="http://www.w3.org/2000/svg" version="1.1" viewBox="0 0 396.53 339.69">
  <!-- Generator: Adobe Illustrator 29.8.3, SVG Export Plug-In . SVG Version: 2.1.1 Build 3)  -->
  <defs>
    <style>
      .st0 {
        fill: #fff;
      }

      .st1 {
        fill: #f03;
      }
    </style>
  </defs>
  <path class="st1" d="M43.45,300.33c-17.09-4.63-30.41-18.25-35.34-35.05C0,234.29,0,169.7,0,169.7c0,0,0-64.59,8.11-95.29,4.92-17.09,18.25-30.41,35.34-35.05,30.7-8.4,154.67-8.4,154.67-8.4,0,0,124.26,0,154.96,8.4,17.38,4.63,30.41,17.96,35.05,35.05,8.4,30.7,8.4,95.29,8.4,95.29,0,0,0,64.59-8.4,95.59-4.64,16.8-17.67,30.41-35.05,35.05-30.7,8.4-154.96,8.4-154.96,8.4,0,0-123.97,0-154.67-8.4ZM158.73,229.37l102.83-59.67-102.83-59.38v119.05Z"/>
  <polygon class="st0" points="158.73 229.37 261.56 169.7 158.73 110.32 158.73 229.37"/>
</svg>